<svg width="60" height="60" viewBox="0 0 60 60" fill="none" xmlns="http://www.w3.org/2000/svg">
<circle cx="30" cy="30" r="30" fill="#D5F4F7"/>
<mask id="mask0_0_1" style="mask-type:alpha" maskUnits="userSpaceOnUse" x="15" y="15" width="30" height="30">
<rect x="15" y="15" width="30" height="30" fill="#D9D9D9"/>
</mask>
<g mask="url(#mask0_0_1)">
<path d="M28.75 38.75H31.25V37.5H32.5C32.8542 37.5 33.151 37.3802 33.3906 37.1406C33.6302 36.901 33.75 36.6042 33.75 36.25V32.5C33.75 32.1458 33.6302 31.849 33.3906 31.6094C33.151 31.3698 32.8542 31.25 32.5 31.25H28.75V30H33.75V27.5H31.25V26.25H28.75V27.5H27.5C27.1458 27.5 26.849 27.6198 26.6094 27.8594C26.3698 28.099 26.25 28.3958 26.25 28.75V32.5C26.25 32.8542 26.3698 33.151 26.6094 33.3906C26.849 33.6302 27.1458 33.75 27.5 33.75H31.25V35H26.25V37.5H28.75V38.75ZM22.5 42.5C21.8125 42.5 21.224 42.2552 20.7344 41.7656C20.2448 41.276 20 40.6875 20 40V20C20 19.3125 20.2448 18.724 20.7344 18.2344C21.224 17.7448 21.8125 17.5 22.5 17.5H32.5L40 25V40C40 40.6875 39.7552 41.276 39.2656 41.7656C38.776 42.2552 38.1875 42.5 37.5 42.5H22.5ZM31.25 25V20H22.5V40H37.5V25H31.25Z" fill="#1C1B1F"/>
</g>
</svg>
