<svg width="60" height="60" viewBox="0 0 60 60" fill="none" xmlns="http://www.w3.org/2000/svg">
<circle cx="30" cy="30" r="30" fill="#D5F4F7"/>
<mask id="mask0_0_1" style="mask-type:alpha" maskUnits="userSpaceOnUse" x="15" y="15" width="30" height="30">
<rect x="15" y="15" width="30" height="30" fill="#D9D9D9"/>
</mask>
<g mask="url(#mask0_0_1)">
<path d="M21.25 32.5C21.25 33.5833 21.4688 34.6094 21.9062 35.5781C22.3438 36.5469 22.9688 37.3958 23.7812 38.125C23.7604 38.0208 23.75 37.9271 23.75 37.8438V37.5625C23.75 36.8958 23.875 36.2708 24.125 35.6875C24.375 35.1042 24.7396 34.5729 25.2188 34.0938L28.75 30.625L32.2812 34.0938C32.7604 34.5729 33.125 35.1042 33.375 35.6875C33.625 36.2708 33.75 36.8958 33.75 37.5625V37.8438C33.75 37.9271 33.7396 38.0208 33.7188 38.125C34.5313 37.3958 35.1562 36.5469 35.5938 35.5781C36.0312 34.6094 36.25 33.5833 36.25 32.5C36.25 31.4583 36.0573 30.474 35.6719 29.5469C35.2865 28.6198 34.7292 27.7917 34 27.0625C33.5833 27.3333 33.1458 27.5365 32.6875 27.6719C32.2292 27.8073 31.7604 27.875 31.2813 27.875C29.9896 27.875 28.8698 27.4479 27.9219 26.5938C26.974 25.7396 26.4271 24.6875 26.2812 23.4375C25.4688 24.125 24.75 24.8385 24.125 25.5781C23.5 26.3177 22.974 27.0677 22.5469 27.8281C22.1198 28.5885 21.7969 29.3646 21.5781 30.1562C21.3594 30.9479 21.25 31.7292 21.25 32.5ZM28.75 34.125L26.9688 35.875C26.7396 36.1042 26.5625 36.3646 26.4375 36.6562C26.3125 36.9479 26.25 37.25 26.25 37.5625C26.25 38.2292 26.4948 38.8021 26.9844 39.2813C27.474 39.7604 28.0625 40 28.75 40C29.4375 40 30.026 39.7604 30.5156 39.2813C31.0052 38.8021 31.25 38.2292 31.25 37.5625C31.25 37.2292 31.1875 36.9219 31.0625 36.6406C30.9375 36.3594 30.7604 36.1042 30.5312 35.875L28.75 34.125ZM28.75 18.75V22.875C28.75 23.5833 28.9948 24.1771 29.4844 24.6562C29.974 25.1354 30.5729 25.375 31.2813 25.375C31.6563 25.375 32.0052 25.2969 32.3281 25.1406C32.651 24.9844 32.9375 24.75 33.1875 24.4375L33.75 23.75C35.2917 24.625 36.5104 25.8438 37.4062 27.4062C38.3021 28.9688 38.75 30.6667 38.75 32.5C38.75 35.2917 37.7812 37.6563 35.8438 39.5938C33.9062 41.5313 31.5417 42.5 28.75 42.5C25.9583 42.5 23.5938 41.5313 21.6562 39.5938C19.7188 37.6563 18.75 35.2917 18.75 32.5C18.75 29.8125 19.651 27.2604 21.4531 24.8438C23.2552 22.4271 25.6875 20.3958 28.75 18.75ZM41.25 28.75C40.8958 28.75 40.599 28.6302 40.3594 28.3906C40.1198 28.151 40 27.8542 40 27.5C40 27.1458 40.1198 26.849 40.3594 26.6094C40.599 26.3698 40.8958 26.25 41.25 26.25C41.6042 26.25 41.901 26.3698 42.1406 26.6094C42.3802 26.849 42.5 27.1458 42.5 27.5C42.5 27.8542 42.3802 28.151 42.1406 28.3906C41.901 28.6302 41.6042 28.75 41.25 28.75ZM40 25V18.75H42.5V25H40Z" fill="#1C1B1F"/>
</g>
</svg>
