<svg width="60" height="60" viewBox="0 0 60 60" fill="none" xmlns="http://www.w3.org/2000/svg">
<circle cx="30" cy="30" r="30" fill="#D5F4F7"/>
<mask id="mask0_0_1" style="mask-type:alpha" maskUnits="userSpaceOnUse" x="15" y="15" width="30" height="30">
<rect x="15" y="15" width="30" height="30" fill="#D9D9D9"/>
</mask>
<g mask="url(#mask0_0_1)">
<path d="M41.75 32.8125L32.8125 41.75C32.5625 42 32.2812 42.1875 31.9688 42.3125C31.6562 42.4375 31.3438 42.5 31.0312 42.5C30.7188 42.5 30.4062 42.4375 30.0938 42.3125C29.7812 42.1875 29.5 42 29.25 41.75L18.2188 30.7188C17.9896 30.4896 17.8125 30.224 17.6875 29.9219C17.5625 29.6198 17.5 29.3021 17.5 28.9688V20C17.5 19.3125 17.7448 18.724 18.2344 18.2344C18.724 17.7448 19.3125 17.5 20 17.5H28.9688C29.3021 17.5 29.625 17.5677 29.9375 17.7031C30.25 17.8385 30.5208 18.0208 30.75 18.25L41.75 29.2812C42 29.5312 42.1823 29.8125 42.2969 30.125C42.4115 30.4375 42.4688 30.75 42.4688 31.0625C42.4688 31.375 42.4115 31.6823 42.2969 31.9844C42.1823 32.2865 42 32.5625 41.75 32.8125ZM31.0312 40L39.9688 31.0625L28.9375 20H20V28.9375L31.0312 40ZM23.125 25C23.6458 25 24.0885 24.8177 24.4531 24.4531C24.8177 24.0885 25 23.6458 25 23.125C25 22.6042 24.8177 22.1615 24.4531 21.7969C24.0885 21.4323 23.6458 21.25 23.125 21.25C22.6042 21.25 22.1615 21.4323 21.7969 21.7969C21.4323 22.1615 21.25 22.6042 21.25 23.125C21.25 23.6458 21.4323 24.0885 21.7969 24.4531C22.1615 24.8177 22.6042 25 23.125 25Z" fill="black"/>
</g>
</svg>
