<svg width="60" height="60" viewBox="0 0 60 60" fill="none" xmlns="http://www.w3.org/2000/svg">
<circle cx="30" cy="30" r="30" fill="#D5F4F7"/>
<mask id="mask0_0_1" style="mask-type:alpha" maskUnits="userSpaceOnUse" x="15" y="15" width="30" height="30">
<rect x="15" y="15" width="30" height="30" fill="#D9D9D9"/>
</mask>
<g mask="url(#mask0_0_1)">
<path d="M30 30C31.6875 30 33.4479 29.8281 35.2812 29.4844C37.1146 29.1406 38.6875 28.6875 40 28.125V40.625C38.75 41.1875 37.2292 41.6406 35.4375 41.9844C33.6458 42.3281 31.8333 42.5 30 42.5C28.1667 42.5 26.3542 42.3281 24.5625 41.9844C22.7708 41.6406 21.25 41.1875 20 40.625V28.125C21.3125 28.6875 22.8854 29.1406 24.7188 29.4844C26.5521 29.8281 28.3125 30 30 30ZM37.5 38.75V31.5625C36.4583 31.8542 35.2552 32.0833 33.8906 32.25C32.526 32.4167 31.2292 32.5 30 32.5C28.7708 32.5 27.474 32.4167 26.1094 32.25C24.7448 32.0833 23.5417 31.8542 22.5 31.5625V38.75C23.5417 39.125 24.7396 39.4271 26.0938 39.6562C27.4479 39.8854 28.75 40 30 40C31.25 40 32.5521 39.8854 33.9062 39.6562C35.2604 39.4271 36.4583 39.125 37.5 38.75ZM30 17.5C31.375 17.5 32.5521 17.9896 33.5312 18.9688C34.5104 19.9479 35 21.125 35 22.5C35 23.875 34.5104 25.0521 33.5312 26.0312C32.5521 27.0104 31.375 27.5 30 27.5C28.625 27.5 27.4479 27.0104 26.4688 26.0312C25.4896 25.0521 25 23.875 25 22.5C25 21.125 25.4896 19.9479 26.4688 18.9688C27.4479 17.9896 28.625 17.5 30 17.5ZM30 25C30.6875 25 31.276 24.7552 31.7656 24.2656C32.2552 23.776 32.5 23.1875 32.5 22.5C32.5 21.8125 32.2552 21.224 31.7656 20.7344C31.276 20.2448 30.6875 20 30 20C29.3125 20 28.724 20.2448 28.2344 20.7344C27.7448 21.224 27.5 21.8125 27.5 22.5C27.5 23.1875 27.7448 23.776 28.2344 24.2656C28.724 24.7552 29.3125 25 30 25Z" fill="black"/>
</g>
</svg>
