<svg width="34" height="28" viewBox="0 0 34 28" fill="none" xmlns="http://www.w3.org/2000/svg">
<g id="Group 1">
<path id="Vector" d="M7.06871 1.14976L1.36367 10.9044C1.16915 11.2372 1.11139 11.6324 1.20255 12.0069C1.29371 12.3815 1.52668 12.7059 1.85237 12.9121L9.23641 17.5847C9.33899 17.6498 9.45447 17.6917 9.57487 17.7078C9.69526 17.7238 9.81771 17.7135 9.93373 17.6776C10.0406 17.6447 10.1529 17.6334 10.2642 17.6444C10.3755 17.6554 10.4834 17.6884 10.5817 17.7417C10.6801 17.7949 10.7668 17.8672 10.8368 17.9543C10.9069 18.0415 10.9589 18.1417 10.9897 18.2492L11.0962 18.62C11.1288 18.7339 11.1852 18.8396 11.2615 18.9302C11.3379 19.0208 11.4325 19.0943 11.5391 19.1458L24.7854 25.5296C26.5066 26.3592 28.4169 26.7179 30.3218 26.5692C30.8747 26.5256 31.4037 26.3252 31.8467 25.9915C32.2896 25.6577 32.6281 25.2045 32.8225 24.6851C32.9886 24.2404 33.0436 23.7619 32.9827 23.2911C32.9218 22.8203 32.7469 22.3715 32.4731 21.9837C27.0331 17.7755 22.2762 12.7949 20.2721 4.70282L20.4336 3.83617C20.4807 3.58208 20.4763 3.32113 20.4206 3.06879C20.3649 2.81645 20.259 2.57787 20.1094 2.36722C19.9597 2.15657 19.7692 1.97814 19.5492 1.84252C19.3293 1.7069 19.0843 1.61685 18.8289 1.57773C18.5379 1.53287 18.2406 1.55519 17.9596 1.643C17.6786 1.7308 17.4214 1.88175 17.2077 2.08429L15.1008 4.08052C14.6637 4.49463 14.1227 4.78264 13.5351 4.91397C12.9475 5.0453 12.3353 5.01505 11.7635 4.82642L9.90587 4.21341C9.27742 4.00601 8.7249 3.61629 8.31865 3.09388C7.91239 2.57146 7.67078 1.93997 7.62457 1.2798C7.62067 1.2158 7.59623 1.15478 7.55488 1.10578C7.51353 1.05679 7.45748 1.02244 7.39505 1.00783C7.33263 0.993229 7.26715 0.999152 7.20836 1.02472C7.14957 1.05029 7.1006 1.09414 7.06871 1.14976Z" stroke="black" stroke-width="1.3" stroke-linecap="round" stroke-linejoin="round"/>
<path id="Vector_2" d="M2.26886 9.35687L11.5613 15.2591L13.4017 17.2832L25.7456 23.1719C27.4795 23.9985 29.4549 24.1663 31.3035 23.6441L32.966 23.1719" stroke="black" stroke-width="1.3" stroke-linecap="round" stroke-linejoin="round"/>
<path id="Vector_3" d="M5.57263 26.6013H30.3219" stroke="black" stroke-width="1.3" stroke-linecap="round" stroke-linejoin="round"/>
<path id="Vector_4" d="M1 26.6013H3.2863" stroke="black" stroke-width="1.3" stroke-linecap="round" stroke-linejoin="round"/>
<path id="Vector_5" d="M16.9327 10.6686L20.8987 6.84552" stroke="black" stroke-width="1.3" stroke-linecap="round" stroke-linejoin="round"/>
<path id="Vector_6" d="M19.3276 13.0635L22.2855 10.2478" stroke="black" stroke-width="1.3" stroke-linecap="round" stroke-linejoin="round"/>
<path id="Vector_7" d="M21.6118 15.3477L23.9409 13.1621" stroke="black" stroke-width="1.3" stroke-linecap="round" stroke-linejoin="round"/>
</g>
</svg>
