<svg width="44" height="44" viewBox="0 0 44 44" fill="none" xmlns="http://www.w3.org/2000/svg">
<circle cx="22" cy="22" r="21.25" stroke="#BEBEBE" stroke-width="1.5"/>
<mask id="mask0_6_44" style="mask-type:alpha" maskUnits="userSpaceOnUse" x="7" y="8" width="30" height="30">
<rect x="7" y="8" width="30" height="30" fill="#D9D9D9"/>
</mask>
<g mask="url(#mask0_6_44)">
<path d="M22 23C20.625 23 19.4479 22.5104 18.4688 21.5312C17.4896 20.5521 17 19.375 17 18C17 16.625 17.4896 15.4479 18.4688 14.4688C19.4479 13.4896 20.625 13 22 13C23.375 13 24.5521 13.4896 25.5312 14.4688C26.5104 15.4479 27 16.625 27 18C27 19.375 26.5104 20.5521 25.5312 21.5312C24.5521 22.5104 23.375 23 22 23ZM12 33V29.5C12 28.7917 12.1823 28.1406 12.5469 27.5469C12.9115 26.9531 13.3958 26.5 14 26.1875C15.2917 25.5417 16.6042 25.0573 17.9375 24.7344C19.2708 24.4115 20.625 24.25 22 24.25C23.375 24.25 24.7292 24.4115 26.0625 24.7344C27.3958 25.0573 28.7083 25.5417 30 26.1875C30.6042 26.5 31.0885 26.9531 31.4531 27.5469C31.8177 28.1406 32 28.7917 32 29.5V33H12ZM14.5 30.5H29.5V29.5C29.5 29.2708 29.4427 29.0625 29.3281 28.875C29.2135 28.6875 29.0625 28.5417 28.875 28.4375C27.75 27.875 26.6146 27.4531 25.4688 27.1719C24.3229 26.8906 23.1667 26.75 22 26.75C20.8333 26.75 19.6771 26.8906 18.5312 27.1719C17.3854 27.4531 16.25 27.875 15.125 28.4375C14.9375 28.5417 14.7865 28.6875 14.6719 28.875C14.5573 29.0625 14.5 29.2708 14.5 29.5V30.5ZM22 20.5C22.6875 20.5 23.276 20.2552 23.7656 19.7656C24.2552 19.276 24.5 18.6875 24.5 18C24.5 17.3125 24.2552 16.724 23.7656 16.2344C23.276 15.7448 22.6875 15.5 22 15.5C21.3125 15.5 20.724 15.7448 20.2344 16.2344C19.7448 16.724 19.5 17.3125 19.5 18C19.5 18.6875 19.7448 19.276 20.2344 19.7656C20.724 20.2552 21.3125 20.5 22 20.5Z" fill="#1C1B1F"/>
</g>
</svg>
