<svg width="44" height="44" viewBox="0 0 44 44" fill="none" xmlns="http://www.w3.org/2000/svg">
<circle cx="22" cy="22" r="21.25" stroke="#BEBEBE" stroke-width="1.5"/>
<mask id="mask0_6_55" style="mask-type:alpha" maskUnits="userSpaceOnUse" x="7" y="8" width="30" height="30">
<rect x="7" y="8" width="30" height="30" fill="#D9D9D9"/>
</mask>
<g mask="url(#mask0_6_55)">
<path d="M14.5 35.5C13.8125 35.5 13.224 35.2552 12.7344 34.7656C12.2448 34.276 12 33.6875 12 33V18C12 17.3125 12.2448 16.724 12.7344 16.2344C13.224 15.7448 13.8125 15.5 14.5 15.5H17C17 14.125 17.4896 12.9479 18.4688 11.9688C19.4479 10.9896 20.625 10.5 22 10.5C23.375 10.5 24.5521 10.9896 25.5312 11.9688C26.5104 12.9479 27 14.125 27 15.5H29.5C30.1875 15.5 30.776 15.7448 31.2656 16.2344C31.7552 16.724 32 17.3125 32 18V33C32 33.6875 31.7552 34.276 31.2656 34.7656C30.776 35.2552 30.1875 35.5 29.5 35.5H14.5ZM14.5 33H29.5V18H27V20.5C27 20.8542 26.8802 21.151 26.6406 21.3906C26.401 21.6302 26.1042 21.75 25.75 21.75C25.3958 21.75 25.099 21.6302 24.8594 21.3906C24.6198 21.151 24.5 20.8542 24.5 20.5V18H19.5V20.5C19.5 20.8542 19.3802 21.151 19.1406 21.3906C18.901 21.6302 18.6042 21.75 18.25 21.75C17.8958 21.75 17.599 21.6302 17.3594 21.3906C17.1198 21.151 17 20.8542 17 20.5V18H14.5V33ZM19.5 15.5H24.5C24.5 14.8125 24.2552 14.224 23.7656 13.7344C23.276 13.2448 22.6875 13 22 13C21.3125 13 20.724 13.2448 20.2344 13.7344C19.7448 14.224 19.5 14.8125 19.5 15.5Z" fill="#1C1B1F"/>
</g>
<circle cx="12" cy="35" r="6" fill="#D52727"/>
<path d="M13.4632 33.492H11.0062V35.088C11.1136 34.9387 11.2722 34.8173 11.4822 34.724C11.6922 34.626 11.9186 34.577 12.1612 34.577C12.5486 34.577 12.8636 34.6587 13.1062 34.822C13.3489 34.9807 13.5216 35.1883 13.6242 35.445C13.7316 35.697 13.7852 35.9653 13.7852 36.25C13.7852 36.586 13.7222 36.887 13.5962 37.153C13.4702 37.419 13.2766 37.629 13.0152 37.783C12.7586 37.937 12.4389 38.014 12.0562 38.014C11.5662 38.014 11.1696 37.888 10.8662 37.636C10.5629 37.384 10.3786 37.048 10.3132 36.628H10.9362C10.9969 36.894 11.1252 37.1017 11.3212 37.251C11.5172 37.4003 11.7646 37.475 12.0632 37.475C12.4319 37.475 12.7096 37.3653 12.8962 37.146C13.0829 36.922 13.1762 36.628 13.1762 36.264C13.1762 35.9 13.0829 35.62 12.8962 35.424C12.7096 35.2233 12.4342 35.123 12.0702 35.123C11.8229 35.123 11.6059 35.1837 11.4192 35.305C11.2372 35.4217 11.1042 35.5827 11.0202 35.788H10.4182V32.932H13.4632V33.492Z" fill="white"/>
</svg>
